<?xml version="1.0" encoding="utf-8"?>
<!-- Generator: Adobe Illustrator 25.2.0, SVG Export Plug-In . SVG Version: 6.00 Build 0)  -->
<svg version="1.1" id="Layer_1" xmlns="http://www.w3.org/2000/svg" xmlns:xlink="http://www.w3.org/1999/xlink" x="0px" y="0px"
	 viewBox="0 0 292.5 33.3" style="enable-background:new 0 0 292.5 33.3;" xml:space="preserve">
<style type="text/css">
	.st0{fill:#FFFFFF;}
</style>
<g>
	<polygon class="st0" points="3.7,29 7.3,29 7.3,18.1 18.2,18.1 18.2,14.7 7.3,14.7 7.3,7.5 20.9,7.5 20.9,4.1 3.7,4.1 	"/>
	<g>
		<polygon class="st0" points="29.9,7.5 43.8,7.5 43.8,4.1 26.4,4.1 26.4,7.5 		"/>
		<polygon class="st0" points="29.9,17.8 41,17.8 41,14.4 29.9,14.4 29.9,10.7 26.4,10.7 26.4,29 44.1,29 44.1,25.7 29.9,25.7 		"/>
	</g>
	<polygon class="st0" points="66.8,22.5 52.9,4.1 49.9,4.1 49.9,29 53.5,29 53.5,10.7 67.4,29 70.4,29 70.4,4.1 66.8,4.1 	"/>
	<path class="st0" d="M89.5,3.8c-3.5,0-6.6,1.3-9.1,3.7s-3.7,5.5-3.7,9.1s1.3,6.6,3.7,9.1s5.5,3.7,9.1,3.7c3.5,0,6.6-1.3,9.1-3.7
		s3.7-5.5,3.7-9.1S101,10,98.6,7.5S93,3.8,89.5,3.8z M89.5,26c-2.6,0-4.8-0.9-6.6-2.7c-1.8-1.8-2.7-4.1-2.7-6.7s0.9-4.9,2.7-6.7
		c1.8-1.8,4-2.7,6.6-2.7c2.6,0,4.8,0.9,6.6,2.7c1.8,1.8,2.7,4.1,2.7,6.7s-0.9,4.9-2.7,6.7C94.3,25.1,92.1,26,89.5,26z"/>
	<polygon class="st0" points="121.3,16.8 111.6,4.1 108.6,4.1 108.6,29 112.2,29 112.2,10.6 121.3,22.5 130.3,10.6 130.3,29 
		133.9,29 133.9,4.1 130.9,4.1 	"/>
	<path class="st0" d="M158,4.1h-8V29h8c3.6,0,6.7-1.2,9.2-3.7c2.5-2.4,3.8-5.4,3.8-8.8s-1.3-6.4-3.8-8.8
		C164.7,5.4,161.6,4.1,158,4.1z M158,25.7h-4.5V7.5h4.5c2.7,0,4.9,0.9,6.7,2.6c1.8,1.8,2.7,3.9,2.7,6.4s-0.9,4.7-2.7,6.4
		C162.9,24.8,160.6,25.7,158,25.7z"/>
	<rect x="177.3" y="4.1" class="st0" width="3.6" height="24.9"/>
	<path class="st0" d="M201.5,19.1h5.5v3.9l-0.2,0.2c-0.1,0.1-0.3,0.4-0.8,0.7c-0.4,0.3-0.9,0.6-1.4,0.9c-0.5,0.3-1.2,0.6-2,0.8
		c-0.8,0.2-1.7,0.3-2.6,0.3c-2.6,0-4.8-0.9-6.6-2.7c-1.8-1.8-2.7-4.1-2.7-6.7s0.9-4.9,2.7-6.7c1.8-1.8,4-2.7,6.6-2.7
		c1,0,1.9,0.1,2.8,0.4c0.9,0.3,1.6,0.6,2.1,0.9c0.5,0.3,1.1,0.7,1.5,1.2c0.6,0.6,0.8,0.8,0.9,0.9c0.1,0.2,0.2,0.3,0.3,0.4l0.3,0.5
		l2.5-2.2l-0.6-0.9c-0.3-0.4-0.7-0.8-1.3-1.3c-0.6-0.5-1.2-1-2-1.5c-0.8-0.5-1.7-0.9-2.9-1.3c-1.2-0.4-2.4-0.5-3.6-0.5
		c-3.5,0-6.6,1.3-9.1,3.7c-2.5,2.5-3.7,5.5-3.7,9.1s1.3,6.6,3.7,9.1s5.5,3.7,9.1,3.7c1.3,0,2.5-0.2,3.7-0.5c1.2-0.4,2.2-0.8,2.9-1.2
		c0.7-0.5,1.5-1,2.1-1.6c0.7-0.6,1.1-1,1.3-1.2c0.2-0.2,0.4-0.4,0.5-0.6l0.1-0.1v-8.3h-9V19.1z"/>
	<rect x="217.5" y="4.1" class="st0" width="3.6" height="24.9"/>
	<polygon class="st0" points="244.6,4.1 226,4.1 226,7.5 233.6,7.5 233.6,29 237.1,29 237.1,7.5 244.6,7.5 	"/>
	<path class="st0" d="M254.9,4.1L244.6,29h3.8l2.7-6.7h10.6l2.7,6.7h3.8L257.9,4.1H254.9z M260.3,19h-7.7l3.9-9.5L260.3,19z"/>
	<polygon class="st0" points="276.7,25.7 276.7,4.1 273.1,4.1 273.1,29 289,29 289,25.7 	"/>
</g>
</svg>
